<svg width="964" height="224" viewBox="0 0 964 224" fill="none" xmlns="http://www.w3.org/2000/svg">
<path d="M94.7984 157.834C145.384 161.023 168.884 178.959 168.884 212.837C168.884 261.064 138.214 279 90.8152 279H0V0H80.4591C139.011 0 166.096 27.5014 166.096 77.3229C166.096 122.76 138.214 151.856 94.7984 157.834ZM99.1798 86.0914C99.1798 64.5686 91.6118 55.0029 77.2726 55.0029H70.8996V115.187H77.2726C92.8068 115.187 99.1798 102.831 99.1798 86.0914ZM70.8996 225.99H80.0608C94.0017 225.99 101.968 214.033 101.968 193.307C101.968 174.973 93.2051 165.009 77.6709 165.009H70.8996V225.99Z" fill="#F6F6F6"/>
<path d="M282.693 191.314C342.44 192.909 356.381 203.67 365.542 279H288.668C288.668 202.873 283.49 198.887 263.176 198.887H257.998V279H187.098V0H277.116C330.49 0 360.762 35.4729 360.762 88.8814C360.762 150.261 334.075 185.336 282.693 191.314ZM257.998 58.9886V139.899H265.565C284.286 139.899 289.862 130.333 289.862 97.2514C289.862 67.7571 284.286 58.9886 264.769 58.9886H257.998Z" fill="#F6F6F6"/>
<path d="M564.763 279H491.076L486.694 239.541H441.287L436.507 279H367.997L409.023 0H523.339L564.763 279ZM464.787 47.0314L448.058 184.937H480.321L464.787 47.0314Z" fill="#F6F6F6"/>
<path d="M707.036 206.859L697.874 0H762.799V279H672.781L635.339 77.7215L644.102 279H579.576V0H670.391L707.036 206.859Z" fill="#F6F6F6"/>
<path d="M793.124 0H855.261C929.745 0 964 43.8429 964 139.5C964 235.157 929.745 279 855.261 279H793.124V0ZM864.024 220.011H866.015C883.143 220.011 893.1 203.67 893.1 139.5C893.1 74.9314 883.143 58.9886 866.015 58.9886H864.024V220.011Z" fill="#F6F6F6"/>
</svg>
